<?xml version="1.0" standalone="no"?>
<!DOCTYPE svg PUBLIC "-//W3C//DTD SVG 20010904//EN"
 "http://www.w3.org/TR/2001/REC-SVG-20010904/DTD/svg10.dtd">
<svg version="1.0" xmlns="http://www.w3.org/2000/svg"
 width="2362.000000pt" height="2362.000000pt" viewBox="0 0 2362.000000 2362.000000"
 preserveAspectRatio="xMidYMid meet">

<g transform="translate(0.000000,2362.000000) scale(0.100000,-0.100000)"
fill="#000000" stroke="none">
<path d="M12130 14806 l0 -325 58 -6 c319 -34 537 -90 909 -233 38 -15 43 -15
60 -1 10 9 142 119 293 244 151 125 276 231 278 236 5 12 -192 108 -354 172
-237 94 -502 164 -759 201 -96 14 -377 36 -457 36 l-28 0 0 -324z"/>
<path d="M8148 15093 c5 -10 670 -1424 1478 -3142 l1469 -3124 17 39 c9 22
507 1092 1107 2379 l1089 2340 -587 3 c-322 1 -591 0 -597 -2 -5 -2 -235 -486
-509 -1075 -380 -815 -502 -1068 -510 -1059 -7 7 -384 796 -840 1753 -455 957
-846 1777 -869 1823 l-40 82 -609 0 c-575 0 -607 -1 -599 -17z"/>
<path d="M13541 14421 c-165 -133 -301 -243 -301 -245 0 -2 38 -25 85 -51 269
-146 568 -384 763 -607 48 -54 90 -98 94 -98 14 0 608 392 608 401 0 4 -34 50
-76 101 -107 129 -348 367 -479 471 -103 83 -343 249 -377 262 -10 4 -116 -74
-317 -234z"/>
<path d="M13315 13600 c104 -104 191 -190 193 -190 3 0 82 163 148 308 l33 72
-282 0 -282 0 190 -190z"/>
<path d="M14567 13531 c-164 -104 -303 -193 -308 -198 -5 -5 8 -32 34 -68 182
-251 359 -622 437 -913 13 -46 28 -86 34 -88 10 -4 588 296 610 316 19 18 -73
314 -160 520 -81 190 -256 507 -329 595 l-20 25 -298 -189z"/>
<path d="M15094 12300 c-166 -81 -304 -152 -307 -156 -3 -5 -1 -32 4 -59 52
-267 60 -687 19 -940 -6 -35 -5 -54 3 -62 23 -24 500 -274 507 -266 12 12 76
264 99 388 71 386 74 816 8 1174 -7 35 -16 65 -22 67 -5 1 -146 -64 -311 -146z"/>
<path d="M14771 10923 c-5 -21 -19 -76 -31 -123 -65 -262 -195 -561 -352 -810
-70 -112 -87 -84 136 -224 l157 -99 24 23 c38 36 191 245 267 365 76 122 231
427 276 547 27 71 28 78 13 91 -25 22 -457 267 -469 267 -6 0 -16 -17 -21 -37z"/>
<path d="M14172 9692 c-233 -278 -431 -446 -811 -686 -24 -15 -39 -31 -35 -35
37 -32 224 -161 234 -161 21 0 228 110 354 189 217 136 432 309 609 488 82 84
87 90 70 104 -15 13 -281 181 -319 203 -7 3 -49 -39 -102 -102z"/>
<path d="M13140 8894 c-240 -113 -502 -190 -814 -241 -146 -23 -570 -29 -745
-9 -131 15 -363 56 -406 72 -14 6 -16 3 -10 -17 16 -52 30 -62 136 -90 278
-76 547 -111 859 -112 229 0 343 8 552 44 269 45 699 176 697 212 0 15 -183
167 -201 167 -7 0 -38 -12 -68 -26z"/>
</g>
</svg>
