<?xml version="1.0" standalone="no"?>
<!DOCTYPE svg PUBLIC "-//W3C//DTD SVG 20010904//EN"
 "http://www.w3.org/TR/2001/REC-SVG-20010904/DTD/svg10.dtd">
<svg version="1.0" xmlns="http://www.w3.org/2000/svg"
 width="2362.000000pt" height="2362.000000pt" viewBox="0 0 2362.000000 2362.000000"
 preserveAspectRatio="xMidYMid meet">

<g transform="translate(0.000000,2362.000000) scale(0.100000,-0.100000)"
fill="#000000" stroke="none">
<path d="M12130 17714 l0 -324 23 -4 c12 -3 53 -7 90 -11 238 -21 601 -116
825 -216 62 -28 65 -28 86 -11 126 99 576 477 576 483 0 12 -150 86 -290 144
-393 163 -757 241 -1202 259 l-108 4 0 -324z"/>
<path d="M8154 17988 c7 -18 379 -809 826 -1758 446 -949 1104 -2347 1462
-3108 358 -760 652 -1381 654 -1380 1 2 500 1072 1108 2378 l1105 2375 -587 3
c-323 1 -591 0 -597 -2 -5 -2 -235 -486 -509 -1075 -275 -589 -502 -1071 -505
-1071 -3 0 -399 826 -880 1835 l-874 1835 -609 0 -608 0 14 -32z"/>
<path d="M13541 17329 c-166 -133 -299 -245 -294 -249 4 -5 53 -34 108 -65
273 -155 510 -346 726 -582 51 -57 98 -103 104 -103 15 0 598 383 602 396 10
32 -323 385 -508 539 -126 104 -410 305 -432 305 -2 0 -139 -109 -306 -241z"/>
<path d="M13315 16510 c104 -104 192 -190 195 -190 3 0 41 78 84 173 44 94 83
180 88 190 8 16 -8 17 -274 17 l-283 0 190 -190z"/>
<path d="M14560 16434 c-162 -102 -299 -189 -303 -193 -5 -5 18 -46 51 -92
179 -252 325 -556 412 -854 27 -93 41 -129 51 -127 32 8 601 316 606 328 7 20
-57 237 -118 399 -29 77 -91 217 -139 310 -86 171 -236 415 -255 415 -5 0
-143 -84 -305 -186z"/>
<path d="M15105 15213 c-165 -79 -305 -150 -312 -156 -8 -9 -9 -26 -2 -62 28
-148 42 -315 43 -520 0 -190 -12 -388 -30 -461 -5 -19 22 -37 251 -159 144
-77 260 -134 265 -129 27 28 110 407 136 624 20 168 23 564 5 705 -18 144 -42
289 -50 297 -3 3 -141 -59 -306 -139z"/>
<path d="M14770 13828 c-87 -357 -221 -682 -385 -934 -30 -47 -55 -88 -55 -92
0 -10 338 -222 353 -222 27 0 252 313 357 495 116 203 247 502 227 522 -15 15
-466 273 -478 273 -4 0 -13 -19 -19 -42z"/>
<path d="M14178 12608 c-199 -247 -480 -491 -755 -655 -52 -31 -96 -59 -98
-63 -3 -5 49 -47 115 -94 l119 -87 63 32 c316 159 589 353 841 598 118 116
145 147 135 157 -10 9 -241 156 -325 207 -7 5 -42 -30 -95 -95z"/>
<path d="M13130 11798 c-562 -260 -1235 -332 -1855 -197 -49 11 -98 22 -108
25 -16 5 -16 2 4 -38 l21 -44 147 -37 c316 -79 502 -101 836 -101 269 0 402
13 635 60 220 45 589 160 601 188 5 12 -187 176 -204 175 -7 0 -41 -14 -77
-31z"/>
<path d="M13937 8733 c-11 -10 -8 -1761 3 -1903 11 -152 36 -238 93 -321 94
-138 243 -188 565 -189 l102 0 -2 167 -3 167 -78 12 c-99 16 -166 49 -190 96
-9 19 -21 68 -27 109 -5 42 -10 457 -10 972 l0 897 -223 0 c-123 0 -227 -3
-230 -7z"/>
<path d="M14936 8694 c-13 -13 -16 -45 -16 -194 0 -202 1 -204 74 -215 78 -12
361 -2 379 14 15 12 17 38 17 196 0 164 -2 184 -18 198 -27 25 -412 25 -436 1z"/>
<path d="M1532 8665 c2 -8 167 -536 368 -1175 l365 -1160 294 3 294 2 368
1170 c203 644 369 1171 369 1173 0 1 -107 1 -237 0 l-237 -3 -62 -205 c-34
-113 -157 -526 -274 -918 -118 -392 -217 -707 -220 -700 -4 7 -121 393 -260
858 -139 465 -261 873 -272 908 l-19 62 -240 0 c-205 0 -240 -2 -237 -15z"/>
<path d="M10102 7503 l3 -1168 545 0 c569 1 589 2 727 46 80 26 194 101 259
170 183 196 276 566 261 1039 -12 376 -66 598 -191 787 -62 95 -131 155 -236
208 -162 81 -142 79 -793 83 l-577 3 2 -1168z m1130 714 c86 -42 141 -127 179
-278 17 -70 22 -124 26 -326 6 -272 -4 -411 -42 -559 -27 -107 -55 -160 -112
-217 -84 -85 -144 -97 -475 -97 l-248 0 0 756 0 755 308 -3 307 -3 57 -28z"/>
<path d="M4268 8049 c-213 -17 -371 -76 -452 -170 -109 -128 -153 -295 -163
-614 -17 -581 90 -814 419 -909 110 -32 310 -50 448 -42 141 9 401 48 493 73
15 4 17 19 17 138 l0 134 -337 3 c-328 3 -340 4 -398 27 -33 13 -73 35 -88 50
-39 36 -73 105 -86 176 -20 105 -43 95 223 95 129 0 270 5 312 11 162 22 286
79 353 161 94 115 107 397 29 606 -26 68 -110 157 -184 195 -107 54 -364 83
-586 66z m289 -358 c69 -30 89 -55 109 -131 29 -114 6 -220 -55 -252 -19 -9
-93 -14 -270 -16 l-244 -3 7 83 c18 210 62 293 175 335 57 21 214 12 278 -16z"/>
<path d="M6300 8043 c-138 -15 -243 -72 -366 -199 l-71 -73 -54 127 -55 127
-177 3 -177 2 0 -850 0 -850 230 0 230 0 0 528 0 528 38 36 c60 58 145 106
228 129 68 18 97 21 216 17 l138 -4 0 236 0 237 -46 7 c-47 6 -69 6 -134 -1z"/>
<path d="M7215 8039 c-195 -14 -339 -66 -430 -155 -54 -52 -82 -107 -101 -193
-16 -77 -18 -285 -4 -362 21 -113 97 -222 187 -272 94 -50 147 -59 428 -66
282 -7 293 -9 331 -65 21 -32 29 -121 15 -171 -8 -30 -21 -47 -53 -68 l-42
-27 -423 0 -424 0 3 -137 3 -137 55 -17 c155 -47 674 -69 860 -36 172 30 254
68 328 152 71 81 85 133 90 330 3 111 0 189 -8 225 -26 118 -105 227 -197 271
-83 40 -149 49 -398 55 -132 3 -254 7 -272 10 -42 6 -91 56 -99 100 -9 50 3
124 24 154 40 54 45 55 475 58 l397 3 0 139 c0 77 -2 140 -5 140 -2 0 -30 7
-61 15 -85 22 -333 53 -459 57 -60 3 -159 1 -220 -3z"/>
<path d="M8842 8039 c-132 -7 -191 -16 -312 -45 l-150 -36 0 -133 0 -134 343
-4 c357 -4 397 -8 465 -53 39 -25 63 -95 69 -198 l6 -93 -284 -6 c-367 -7
-436 -21 -556 -110 -64 -48 -107 -111 -133 -195 -16 -52 -20 -93 -20 -216 0
-210 24 -288 114 -379 103 -103 229 -138 413 -117 145 16 367 96 456 164 l34
26 34 -88 35 -87 182 -3 183 -2 -3 667 c-4 665 -4 668 -26 728 -99 263 -313
342 -850 314z m418 -1119 l0 -199 -32 -14 c-93 -40 -170 -58 -271 -64 l-107
-6 -50 34 c-43 29 -51 40 -60 82 -13 61 -13 151 0 198 15 52 85 114 152 134
51 14 202 31 316 34 l52 1 0 -200z"/>
<path d="M12705 8035 c-166 -29 -262 -74 -343 -159 -134 -141 -179 -343 -169
-760 4 -180 10 -252 26 -325 61 -281 217 -416 536 -462 172 -24 476 -5 728 48
l77 16 0 129 0 128 -268 0 c-441 0 -544 25 -607 150 -21 41 -45 142 -45 191 0
14 31 17 273 22 297 6 378 18 494 74 201 95 268 356 170 668 -42 134 -167 234
-337 270 -106 23 -429 29 -535 10z m378 -335 c98 -37 127 -89 127 -231 0 -106
-11 -134 -64 -162 -38 -20 -59 -22 -278 -25 l-238 -4 0 29 c1 75 22 217 40
265 42 111 104 147 257 148 78 0 115 -5 156 -20z"/>
<path d="M17976 8040 c-331 -52 -467 -189 -527 -530 -19 -105 -19 -537 0 -650
41 -247 134 -389 304 -464 193 -86 497 -101 842 -42 83 14 164 29 180 34 l30
8 3 127 3 127 -273 0 c-151 0 -312 5 -358 11 -100 12 -199 55 -230 99 -33 47
-60 134 -60 195 l0 55 193 0 c105 1 237 5 292 10 309 29 451 140 484 380 9 70
0 216 -20 296 -45 181 -165 291 -359 329 -99 20 -413 29 -504 15z m346 -338
c100 -36 131 -89 132 -232 1 -77 -3 -101 -17 -124 -35 -53 -69 -60 -324 -64
l-233 -4 0 84 c0 180 53 300 150 342 50 22 229 20 292 -2z"/>
<path d="M20010 8030 c-89 -18 -206 -94 -298 -196 -33 -35 -64 -64 -69 -64 -6
0 -34 56 -63 125 l-53 125 -173 0 -174 0 0 -845 0 -845 228 2 227 3 3 532 2
531 48 44 c113 100 202 128 419 128 l153 0 0 229 c0 199 -2 230 -16 235 -21 8
-190 6 -234 -4z"/>
<path d="M14930 7175 l0 -845 225 0 225 0 0 845 0 845 -225 0 -225 0 0 -845z"/>
<path d="M15904 7178 l283 -843 263 0 263 0 268 760 c148 418 282 797 298 843
l29 82 -231 0 -232 0 -185 -621 c-102 -341 -188 -626 -192 -632 -6 -9 -10 -9
-15 0 -5 6 -89 291 -188 632 l-180 621 -232 0 -232 0 283 -842z"/>
<path d="M20410 7913 c16 -60 92 -355 170 -657 78 -302 152 -572 165 -601 83
-189 261 -315 445 -315 37 0 40 -2 40 -27 0 -20 -148 -622 -176 -716 -5 -16 7
-17 183 -15 l188 3 81 160 82 160 242 1035 c132 569 244 1045 247 1058 l5 22
-227 -2 -228 -3 -148 -630 c-82 -346 -151 -640 -154 -652 -12 -48 -118 -15
-160 48 -29 45 -27 36 -191 737 l-118 502 -237 0 -238 0 29 -107z"/>
</g>
</svg>
