<?xml version="1.0" standalone="no"?>
<!DOCTYPE svg PUBLIC "-//W3C//DTD SVG 20010904//EN"
 "http://www.w3.org/TR/2001/REC-SVG-20010904/DTD/svg10.dtd">
<svg version="1.0" xmlns="http://www.w3.org/2000/svg"
 width="2362.000000pt" height="2362.000000pt" viewBox="0 0 2362.000000 2362.000000"
 preserveAspectRatio="xMidYMid meet">

<g transform="translate(0.000000,2362.000000) scale(0.100000,-0.100000)"
fill="#000000" stroke="none">
<path d="M13934 13376 c-3 -7 -3 -452 -1 -987 3 -862 5 -982 20 -1043 24 -101
69 -189 124 -244 92 -92 191 -121 446 -129 l177 -6 0 166 c0 190 15 165 -111
187 -79 14 -137 44 -160 85 -35 59 -39 178 -39 1092 l0 893 -225 0 c-183 0
-227 -3 -231 -14z"/>
<path d="M14936 13344 c-22 -22 -24 -360 -2 -390 13 -18 28 -19 219 -19 158 0
208 3 220 14 15 12 17 38 17 196 0 164 -2 184 -18 198 -27 25 -412 25 -436 1z"/>
<path d="M1532 13308 c3 -7 169 -534 369 -1171 l364 -1157 294 2 294 3 349
1105 c191 608 357 1133 367 1168 l19 62 -237 0 -237 0 -26 -87 c-250 -842
-522 -1742 -526 -1738 -3 2 -127 413 -276 912 l-271 908 -244 3 c-193 2 -242
0 -239 -10z"/>
<path d="M10100 12149 l0 -1171 563 5 c630 5 638 6 783 77 146 71 266 205 336
374 122 297 152 760 77 1186 -68 389 -261 615 -579 680 -87 18 -140 20 -637
20 l-543 0 0 -1171z m1084 736 c90 -27 133 -67 182 -170 53 -113 65 -190 71
-458 3 -147 1 -280 -6 -347 -13 -126 -49 -278 -80 -339 -31 -59 -94 -119 -160
-150 -56 -26 -57 -26 -343 -29 l-288 -4 0 756 0 756 288 0 c226 0 297 -3 336
-15z"/>
<path d="M4185 12691 c-327 -53 -456 -186 -517 -531 -18 -103 -18 -558 0 -660
31 -171 81 -286 160 -366 164 -165 533 -214 1007 -134 66 11 137 25 158 31
l37 10 0 129 0 130 -232 0 c-440 0 -554 23 -624 125 -29 42 -52 110 -59 178
l-6 57 249 0 c266 0 371 11 476 51 117 43 197 124 232 232 25 78 30 257 10
357 -27 133 -52 188 -115 251 -110 109 -217 139 -521 144 -113 2 -227 0 -255
-4z m338 -341 c82 -25 111 -49 134 -108 24 -63 25 -194 1 -238 -32 -58 -74
-67 -325 -72 -201 -4 -224 -2 -229 13 -11 27 14 210 37 270 40 106 115 153
250 154 40 1 93 -7 132 -19z"/>
<path d="M12719 12686 c-179 -32 -282 -79 -360 -164 -133 -145 -176 -341 -166
-756 6 -265 23 -372 80 -490 72 -150 180 -229 384 -280 85 -22 291 -38 393
-31 109 8 344 41 438 62 l72 17 0 128 0 128 -279 0 c-442 0 -531 23 -597 151
-13 26 -28 75 -34 110 -17 110 -40 99 208 99 253 0 361 11 471 45 138 44 216
113 262 232 30 78 37 238 16 348 -25 134 -53 192 -121 260 -111 111 -226 144
-516 150 -119 3 -199 0 -251 -9z m356 -336 c107 -37 134 -84 135 -230 0 -177
-25 -190 -362 -190 l-218 0 0 28 c1 74 22 216 40 264 23 63 72 114 126 133 61
22 209 19 279 -5z"/>
<path d="M17959 12685 c-166 -27 -288 -82 -357 -161 -130 -146 -181 -381 -169
-774 14 -478 116 -653 430 -744 208 -60 500 -53 865 20 l82 17 0 128 0 127
-332 4 c-316 4 -336 5 -398 27 -36 12 -80 34 -99 48 -47 36 -83 120 -89 209
l-4 71 273 6 c233 4 286 8 356 26 215 54 313 158 341 357 20 142 -21 365 -83
454 -29 42 -108 106 -164 135 -104 53 -467 81 -652 50z m349 -330 c64 -19 117
-64 133 -113 7 -20 13 -78 13 -129 2 -166 -30 -182 -356 -183 l-218 0 0 78 c1
192 57 312 165 350 47 16 204 14 263 -3z"/>
<path d="M6225 12683 c-83 -18 -190 -87 -282 -181 -35 -36 -63 -69 -63 -73 0
-5 -4 -9 -9 -9 -5 0 -33 56 -61 125 l-53 125 -178 0 -179 0 0 -845 0 -845 230
0 230 0 0 529 0 529 48 42 c68 60 134 96 226 121 70 19 98 21 214 17 l132 -5
0 238 0 239 -117 -1 c-65 -1 -127 -3 -138 -6z"/>
<path d="M7103 12675 c-149 -27 -251 -73 -326 -149 -78 -78 -107 -180 -107
-381 0 -138 13 -213 51 -286 46 -91 140 -164 253 -196 36 -11 128 -17 311 -22
282 -7 303 -11 339 -66 23 -35 31 -119 17 -171 -8 -31 -21 -48 -54 -70 l-42
-29 -422 -3 -423 -4 0 -129 0 -130 35 -15 c54 -22 218 -43 449 -56 220 -12
363 -4 511 27 174 37 291 138 331 287 18 70 19 354 0 423 -38 144 -131 242
-271 285 -24 8 -145 15 -311 20 -237 6 -275 9 -310 26 -55 27 -76 72 -71 151
5 72 23 105 70 130 29 16 72 18 430 21 l397 3 0 139 0 138 -72 17 c-230 52
-611 72 -785 40z"/>
<path d="M8720 12680 c-41 -5 -135 -22 -207 -40 l-133 -32 0 -133 0 -133 338
-4 c315 -4 341 -6 404 -26 103 -35 131 -84 132 -237 l1 -90 -305 -6 c-329 -6
-372 -12 -472 -66 -71 -39 -150 -127 -178 -198 -21 -53 -25 -80 -28 -229 -4
-193 7 -254 62 -341 91 -141 247 -201 459 -178 147 17 355 91 459 165 16 11
31 17 36 15 4 -3 21 -42 37 -86 l29 -81 184 0 183 0 -3 668 c-4 664 -4 667
-26 727 -30 80 -88 162 -146 206 -51 39 -165 82 -260 99 -67 11 -451 11 -566
0z m540 -1113 l0 -203 -97 -32 c-191 -61 -294 -63 -370 -9 -35 25 -44 38 -52
79 -34 158 10 276 121 322 42 18 204 38 356 44 l42 2 0 -203z"/>
<path d="M19990 12674 c-74 -19 -207 -110 -278 -190 -31 -35 -62 -64 -69 -64
-6 0 -35 56 -64 125 l-52 125 -174 0 -173 0 0 -845 0 -845 230 0 230 0 0 534
0 533 43 40 c57 53 139 97 218 118 53 14 96 17 213 14 l146 -4 0 231 0 232
-22 6 c-42 11 -192 5 -248 -10z"/>
<path d="M14930 11825 l0 -845 225 0 225 0 0 845 0 845 -225 0 -225 0 0 -845z"/>
<path d="M15904 11828 l283 -843 263 0 263 0 263 745 c145 410 279 789 298
843 l35 97 -232 0 -232 0 -185 -621 c-102 -342 -188 -626 -192 -632 -6 -9 -10
-9 -15 0 -5 6 -89 291 -188 632 l-180 621 -232 0 -232 0 283 -842z"/>
<path d="M20385 12658 c2 -7 79 -303 170 -658 185 -722 192 -741 301 -858 92
-100 153 -129 337 -157 30 -5 37 -10 37 -28 0 -18 -156 -645 -176 -709 -5 -17
8 -18 183 -18 l188 0 82 163 82 162 246 1052 c135 579 245 1055 245 1058 0 3
-102 4 -227 3 l-226 -3 -122 -520 c-67 -286 -137 -582 -155 -658 l-32 -138
-31 7 c-57 12 -96 37 -122 76 -29 44 -35 66 -196 756 l-113 482 -238 0 c-185
0 -236 -3 -233 -12z"/>
</g>
</svg>
