<?xml version="1.0" standalone="no"?>
<!DOCTYPE svg PUBLIC "-//W3C//DTD SVG 20010904//EN"
 "http://www.w3.org/TR/2001/REC-SVG-20010904/DTD/svg10.dtd">
<svg version="1.0" xmlns="http://www.w3.org/2000/svg"
 width="2362.000000pt" height="2362.000000pt" viewBox="0 0 2362.000000 2362.000000"
 preserveAspectRatio="xMidYMid meet">

<g transform="translate(0.000000,2362.000000) scale(0.100000,-0.100000)"
fill="#000000" stroke="none">
<path d="M5560 13573 l0 -190 69 -7 c133 -12 306 -55 450 -111 60 -24 72 -26
88 -14 11 8 90 73 177 144 l158 130 -100 48 c-227 108 -470 170 -724 184
l-118 6 0 -190z"/>
<path d="M4078 11910 c476 -1012 869 -1840 872 -1840 5 0 1274 2715 1296 2774
6 14 -30 16 -343 16 l-348 0 -294 -630 c-161 -346 -297 -630 -301 -630 -4 0
-200 404 -435 898 -235 493 -466 977 -513 1075 l-85 177 -357 0 -358 0 866
-1840z"/>
<path d="M6400 13349 c-91 -71 -169 -134 -173 -138 -5 -5 27 -29 70 -54 125
-72 240 -161 361 -283 l114 -112 174 114 c96 62 174 116 174 120 0 21 -230
256 -330 336 -64 52 -206 148 -217 148 -4 0 -82 -59 -173 -131z"/>
<path d="M6260 12865 c58 -58 107 -105 111 -105 5 0 74 143 96 198 4 9 -31 12
-153 12 l-159 0 105 -105z"/>
<path d="M6995 12820 c-93 -60 -171 -113 -173 -118 -1 -5 18 -39 43 -76 69
-99 158 -282 201 -414 21 -64 41 -121 45 -125 5 -6 333 158 358 179 14 12 -91
299 -155 426 -33 65 -140 239 -146 237 -2 0 -79 -49 -173 -109z"/>
<path d="M15620 12172 c0 -361 4 -579 11 -617 18 -98 61 -161 135 -198 45 -23
148 -39 229 -35 l70 3 0 90 0 90 -55 11 c-71 14 -99 29 -110 60 -6 15 -10 257
-10 590 l0 564 -135 0 -135 0 0 -558z"/>
<path d="M16212 12708 c-16 -16 -16 -210 0 -226 8 -8 50 -12 123 -12 73 0 115
4 123 12 8 8 12 48 12 113 0 65 -4 105 -12 113 -17 17 -229 17 -246 0z"/>
<path d="M8322 12676 c2 -8 98 -316 213 -685 l210 -671 172 0 172 0 11 38 c5
20 101 327 213 682 l203 645 -135 3 c-73 1 -136 1 -138 -2 -2 -2 -74 -240
-160 -528 -86 -287 -159 -526 -162 -531 -4 -4 -79 234 -167 528 l-159 535
-138 0 c-113 0 -138 -3 -135 -14z"/>
<path d="M13370 12009 l0 -680 348 3 348 3 76 38 c125 61 199 167 244 347 27
108 27 469 0 585 -49 212 -161 337 -334 374 -33 7 -173 11 -367 11 l-315 0 0
-681z m601 441 c70 -13 98 -34 130 -98 39 -74 52 -192 46 -391 -4 -133 -9
-179 -26 -234 -26 -81 -76 -142 -129 -157 -21 -5 -110 -10 -199 -10 l-163 0 0
450 0 450 144 0 c79 0 168 -5 197 -10z"/>
<path d="M9835 12316 c-156 -36 -220 -100 -255 -256 -19 -85 -24 -305 -11
-401 31 -207 101 -295 266 -330 84 -17 318 -13 435 9 l95 17 3 77 3 76 -203 4
c-182 3 -208 5 -250 25 -55 25 -77 61 -85 138 l-6 53 199 4 c184 3 203 5 247
27 99 49 134 129 124 284 -10 152 -60 225 -184 264 -68 21 -300 27 -378 9z
m237 -186 c20 -6 48 -24 62 -41 22 -25 26 -41 26 -90 0 -33 -4 -69 -10 -79
-16 -30 -66 -40 -203 -40 l-130 0 8 72 c8 82 23 124 53 151 38 35 123 46 194
27z"/>
<path d="M11075 12321 c-51 -13 -97 -42 -157 -99 -32 -30 -60 -53 -61 -51 -2
2 -17 37 -33 76 l-29 73 -102 0 -103 0 0 -500 0 -500 135 0 135 0 0 314 0 314
31 27 c70 58 106 70 221 70 l108 0 0 136 c0 116 -2 138 -16 143 -20 8 -91 6
-129 -3z"/>
<path d="M12560 12319 c-41 -5 -106 -17 -145 -26 l-70 -18 -3 -77 -3 -76 213
-4 c180 -3 218 -6 245 -21 43 -23 63 -64 63 -132 l0 -55 -148 0 c-220 0 -300
-20 -370 -91 -53 -54 -65 -100 -61 -237 4 -115 5 -122 34 -163 40 -57 83 -85
153 -100 99 -21 270 18 360 81 l43 30 24 -55 25 -55 105 0 105 0 0 365 c0 445
-5 481 -87 560 -53 52 -139 76 -288 80 -66 2 -154 0 -195 -6z m300 -658 l0
-118 -72 -22 c-151 -44 -229 -19 -243 77 -8 59 11 118 46 144 30 23 97 35 197
37 l72 1 0 -119z"/>
<path d="M14910 12320 c-136 -22 -222 -78 -266 -174 -34 -77 -47 -166 -48
-326 0 -289 60 -415 229 -475 76 -26 295 -32 427 -11 150 25 138 16 138 101
l0 73 -212 4 c-192 3 -216 5 -248 23 -41 24 -65 70 -74 143 l-7 52 168 0 c184
0 249 11 313 54 79 52 112 154 92 283 -22 138 -79 207 -197 238 -74 19 -241
27 -315 15z m249 -214 c55 -53 52 -195 -6 -217 -13 -5 -88 -9 -165 -9 l-141 0
6 75 c11 147 55 188 194 183 74 -3 84 -6 112 -32z"/>
<path d="M18000 12320 c-136 -22 -222 -78 -266 -174 -34 -77 -47 -166 -48
-326 0 -289 60 -415 229 -475 76 -26 295 -32 427 -11 150 25 138 16 138 101
l0 73 -212 4 c-192 3 -216 5 -248 23 -41 24 -65 70 -74 143 l-7 52 168 0 c184
0 249 11 313 54 79 52 112 154 92 283 -22 138 -79 207 -197 238 -74 19 -241
27 -315 15z m249 -214 c55 -53 52 -195 -6 -217 -13 -5 -88 -9 -165 -9 l-141 0
6 75 c11 147 55 188 194 183 74 -3 84 -6 112 -32z"/>
<path d="M19213 12320 c-60 -12 -94 -32 -162 -96 -33 -31 -66 -54 -73 -52 -7
3 -24 33 -38 69 l-26 64 -102 3 -102 3 0 -491 0 -490 135 0 135 0 2 317 3 317
43 33 c57 43 109 56 220 56 l92 -1 0 134 c0 132 0 134 -22 134 -13 0 -32 2
-43 4 -11 2 -39 0 -62 -4z"/>
<path d="M11542 12304 c-74 -20 -105 -38 -145 -84 -43 -51 -57 -103 -57 -218
0 -116 19 -170 75 -220 62 -54 106 -65 293 -71 157 -6 165 -7 183 -30 26 -32
26 -110 0 -142 -19 -24 -20 -24 -275 -27 l-256 -3 0 -79 0 -78 50 -11 c28 -6
116 -16 195 -23 238 -19 390 9 470 86 53 50 65 91 65 214 0 123 -13 172 -62
227 -53 60 -104 75 -267 75 -146 1 -210 11 -228 36 -7 10 -13 41 -13 70 0 45
4 56 26 73 25 20 39 21 265 21 l239 0 0 80 0 79 -37 10 c-126 33 -424 42 -521
15z"/>
<path d="M16200 11820 l0 -490 135 0 135 0 0 490 0 490 -135 0 -135 0 0 -490z"/>
<path d="M16620 12303 c0 -5 73 -225 162 -490 l163 -483 151 0 152 0 10 28 c5
15 80 230 167 477 87 248 160 456 162 463 4 9 -25 12 -125 12 l-131 0 -19 -62
c-10 -35 -59 -199 -108 -365 -83 -283 -104 -333 -118 -285 -3 9 -46 159 -96
332 -50 173 -96 330 -101 348 l-11 32 -129 0 c-71 0 -129 -3 -129 -7z"/>
<path d="M19430 12298 c0 -7 42 -178 94 -379 92 -357 118 -434 170 -496 34
-41 116 -83 176 -90 31 -4 50 -11 50 -19 0 -12 -84 -368 -96 -406 -5 -16 4
-18 100 -18 l106 0 44 88 c41 81 56 138 190 703 80 339 146 618 146 622 0 4
-58 7 -129 7 l-129 0 -31 -132 c-17 -73 -57 -245 -89 -383 -57 -245 -59 -250
-84 -253 -18 -2 -37 6 -57 25 -30 27 -36 45 -115 383 l-83 355 -132 3 c-101 2
-131 0 -131 -10z"/>
<path d="M7301 12093 l-173 -86 6 -51 c28 -230 29 -287 10 -507 l-6 -66 145
-77 c80 -42 147 -76 150 -76 18 0 72 256 88 420 17 179 -6 519 -36 526 -5 1
-88 -36 -184 -83z"/>
<path d="M7091 11188 c-41 -144 -110 -305 -177 -415 -29 -48 -50 -91 -46 -95
5 -5 51 -35 103 -68 l94 -60 20 27 c137 181 203 288 277 454 39 88 47 114 36
121 -45 29 -257 148 -265 148 -5 0 -24 -51 -42 -112z"/>
<path d="M6774 10573 c-115 -143 -274 -284 -427 -378 -87 -54 -87 -52 -1 -111
l55 -38 67 33 c152 75 345 216 475 348 53 54 65 72 55 80 -17 14 -177 113
-182 113 -2 0 -21 -21 -42 -47z"/>
<path d="M6160 10090 c-133 -67 -373 -131 -570 -151 -168 -17 -437 2 -567 40
-30 9 -31 8 -22 -13 9 -18 29 -27 97 -44 179 -45 270 -56 467 -57 196 0 306
11 450 46 104 26 295 89 294 97 0 4 -26 28 -57 53 l-57 47 -35 -18z"/>
</g>
</svg>
